<?xml version="1.0" encoding="UTF-8" standalone="no"?>
<svg
   xmlns:dc="http://purl.org/dc/elements/1.1/"
   xmlns:cc="http://creativecommons.org/ns#"
   xmlns:rdf="http://www.w3.org/1999/02/22-rdf-syntax-ns#"
   xmlns:svg="http://www.w3.org/2000/svg"
   xmlns="http://www.w3.org/2000/svg"
   xmlns:sodipodi="http://sodipodi.sourceforge.net/DTD/sodipodi-0.dtd"
   xmlns:inkscape="http://www.inkscape.org/namespaces/inkscape"
   id="generic-bg"
   viewBox="0 0 1451.15 653.44"
   version="1.1"
   inkscape:version="0.91 r13725"
   sodipodi:docname="login-embossing.svg">
  <metadata
     id="metadata333">
    <rdf:RDF>
      <cc:Work
         rdf:about="">
        <dc:format>image/svg+xml</dc:format>
        <dc:type
           rdf:resource="http://purl.org/dc/dcmitype/StillImage" />
      </cc:Work>
    </rdf:RDF>
  </metadata>
  <defs
     id="defs331" />
  <sodipodi:namedview
     pagecolor="#ffffff"
     bordercolor="#666666"
     borderopacity="1"
     objecttolerance="10"
     gridtolerance="10"
     guidetolerance="10"
     inkscape:pageopacity="0"
     inkscape:pageshadow="2"
     inkscape:window-width="1317"
     inkscape:window-height="744"
     id="namedview329"
     showgrid="false"
     showguides="true"
     inkscape:guide-bbox="true"
     inkscape:snap-global="false"
     inkscape:snap-bbox="true"
     inkscape:bbox-paths="true"
     inkscape:bbox-nodes="true"
     inkscape:snap-bbox-edge-midpoints="true"
     inkscape:snap-bbox-midpoints="true"
     inkscape:object-paths="true"
     inkscape:snap-intersection-paths="true"
     inkscape:object-nodes="true"
     inkscape:snap-smooth-nodes="true"
     inkscape:snap-midpoints="true"
     inkscape:snap-object-midpoints="true"
     inkscape:snap-center="true"
     inkscape:zoom="0.70710678"
     inkscape:cx="654.80126"
     inkscape:cy="290.70217"
     inkscape:window-x="49"
     inkscape:window-y="24"
     inkscape:window-maximized="1"
     inkscape:current-layer="generic-bg" />
  <title
     id="title3">simple-codelines</title>
  <path
     id="path4547-5"
     style="opacity:0.08;fill:none;fill-rule:evenodd;stroke:#000000;stroke-width:3;stroke-linecap:round;stroke-linejoin:miter;stroke-miterlimit:4;stroke-dasharray:none;stroke-opacity:1"
     d="m 490.15298,269.29161 -8.24226,14.63187 -29.08524,-15.05538 8.24226,-14.63187 m 29.08524,15.05538 8.24226,14.63187 29.08524,-15.05538 -8.24226,-14.63187 m -29.08524,15.05538 0,36.43246 m -29.08524,-51.48784 29.08524,15.05538 29.08524,-15.05538 m -58.17048,18.89831 0,17.53415 29.08524,15.05538 29.08524,-15.05538 0,-17.53415 m 0,-18.89831 -29.08524,-15.05539 -29.08524,15.05539" />
  <path
     id="path4481-5"
     style="opacity:0.08;fill:none;fill-opacity:1;fill-rule:evenodd;stroke:#000000;stroke-width:3;stroke-linecap:round;stroke-linejoin:miter;stroke-miterlimit:4;stroke-dasharray:none;stroke-opacity:1"
     d="m 1086.8674,310.96985 0,36.43246 m -29.0852,-51.48784 29.0852,15.05538 29.0852,-15.05538 m -58.1704,0 0,36.43246 29.0852,15.05538 29.0852,-15.05538 0,-36.43246 -29.0852,-15.05538 z m -14.5427,-13.84939 0,36.43246 m -29.0852,-51.48784 29.0852,15.05538 29.0853,-15.05538 m -43.6279,44.06652 14.5426,7.42132 14.5427,-7.56336 m 14.5426,-22.5474 0,-21.37708 -29.0853,-15.05538 -29.0852,15.05538 0,21.37708 m -14.54256,22.58307 0,36.43246 m -29.0853,-51.48784 29.0853,15.05538 29.08516,-15.05538 m -58.17046,0 0,36.43246 29.0853,15.05538 29.08516,-15.05538 0,-36.43246 -29.08516,-15.05538 z"
     inkscape:connector-curvature="0" />
  <path
     id="path4481-1"
     style="opacity:0.08;fill:none;fill-opacity:1;fill-rule:evenodd;stroke:#000000;stroke-width:3;stroke-linecap:round;stroke-linejoin:miter;stroke-miterlimit:4;stroke-dasharray:none;stroke-opacity:1"
     d="m 1313.5888,233.91205 0,36.43246 m -29.0852,-51.48784 29.0852,15.05538 29.0853,-15.05538 m -58.1705,0 0,36.43246 29.0852,15.05538 29.0853,-15.05538 0,-36.43246 -29.0853,-15.05538 z"
     inkscape:connector-curvature="0" />
  <path
     id="path4547-5-2"
     style="opacity:0.08;fill:none;fill-rule:evenodd;stroke:#000000;stroke-width:3;stroke-linecap:round;stroke-linejoin:miter;stroke-miterlimit:4;stroke-dasharray:none;stroke-opacity:1"
     d="m 308.06919,295.71868 -8.24226,14.63187 -29.08524,-15.05538 8.24226,-14.63187 m 29.08524,15.05538 8.24226,14.63187 29.08524,-15.05538 -8.24226,-14.63187 m -29.08524,15.05538 0,36.43246 m -29.08524,-51.48784 29.08524,15.05538 29.08524,-15.05538 m -58.17048,18.89831 0,17.53415 29.08524,15.05538 29.08524,-15.05538 0,-17.53415 m 0,-18.89831 -29.08524,-15.05539 -29.08524,15.05539 m 35.07985,61.18215 0,36.43246 m -29.08524,-51.48784 29.08524,15.05538 29.08524,-15.05538 m -51.84489,-3.31701 -6.32559,3.31701 0,36.43246 29.08524,15.05538 29.08524,-15.05538 0,-36.43246 -12.43056,-6.36287 m -53.25352,10.25213 0,36.43246 m -29.08524,-51.48784 29.08524,15.05538 7.5136,-3.88926 m -7.5136,-26.2215 -29.08524,15.05538 0,36.43246 29.08524,15.05538 7.5136,-3.88926"
     inkscape:connector-curvature="0" />
  <path
     id="path4481-5-7"
     style="opacity:0.08;fill:none;fill-opacity:1;fill-rule:evenodd;stroke:#000000;stroke-width:3;stroke-linecap:round;stroke-linejoin:miter;stroke-miterlimit:4;stroke-dasharray:none;stroke-opacity:1"
     d="m 108.28595,592.17274 0,36.43246 m -29.085195,-51.48784 29.085195,15.05538 29.0853,-15.05538 m -58.170495,0 0,36.43246 29.085195,15.05538 29.0853,-15.05538 0,-36.43246 -29.0853,-15.05538 z m -14.5426,-13.84939 0,36.43246 m -29.085276,-51.48784 29.085276,15.05538 29.0852,-15.05538 m -43.62786,44.06652 14.54266,7.42132 14.5426,-7.56336 m 14.5426,-22.5474 0,-21.37708 -29.0852,-15.05538 -29.085276,15.05538 0,21.37708 m -14.54262,22.58307 0,36.43246 M -8.0549811,577.11736 21.030259,592.17274 50.115495,577.11736 m -58.1704761,0 0,36.43246 29.0852401,15.05538 29.085236,-15.05538 0,-36.43246 -29.085236,-15.05538 z"
     inkscape:connector-curvature="0" />
  <path
     inkscape:connector-curvature="0"
     id="path4547-5-0"
     style="opacity:0.08;fill:none;fill-rule:evenodd;stroke:#000000;stroke-width:3;stroke-linecap:round;stroke-linejoin:miter;stroke-miterlimit:4;stroke-dasharray:none;stroke-opacity:1"
     d="m 114.2472,417.23082 -8.24226,14.63187 -29.085243,-15.05538 8.24226,-14.63187 m 29.085243,15.05538 8.24225,14.63187 29.08524,-15.05538 -8.24226,-14.63187 m -29.08523,15.05538 0,36.43246 m -29.085243,-51.48784 29.085243,15.05538 29.08523,-15.05538 m -58.170473,18.89831 0,17.53415 29.085243,15.05538 29.08523,-15.05538 0,-17.53415 m 0,-18.89831 -29.08523,-15.05539 -29.085243,15.05539" />
  <path
     id="path4481-1-3"
     style="opacity:0.08;fill:none;fill-opacity:1;fill-rule:evenodd;stroke:#000000;stroke-width:3;stroke-linecap:round;stroke-linejoin:miter;stroke-miterlimit:4;stroke-dasharray:none;stroke-opacity:1"
     d="m 144.86693,264.19278 0,36.43246 m -29.08524,-51.48784 29.08524,15.05538 29.08524,-15.05538 m -43.62786,43.96015 14.54262,7.52769 29.08524,-15.05538 0,-36.43246 -29.08524,-15.05538 -29.08524,15.05538 0,18.21623 m -14.54262,22.58307 0,36.43246 m -29.085241,-51.48784 29.085241,15.05538 29.08524,-15.05538 m -58.170481,0 0,36.43246 29.085241,15.05538 29.08524,-15.05538 0,-36.43246 -29.08524,-15.05538 z" />
  <path
     id="path4481-1-0"
     style="opacity:0.08;fill:none;fill-opacity:1;fill-rule:evenodd;stroke:#000000;stroke-width:3;stroke-linecap:round;stroke-linejoin:miter;stroke-miterlimit:4;stroke-dasharray:none;stroke-opacity:1"
     d="m 1462.1536,256.41355 0,36.43246 m -29.0853,-51.48784 29.0853,15.05538 29.0852,-15.05538 m -58.1705,0 0,36.43246 29.0853,15.05538 29.0852,-15.05538 0,-36.43246 -29.0852,-15.05538 z"
     inkscape:connector-curvature="0" />
  <path
     inkscape:connector-curvature="0"
     id="path4547-5-5"
     style="opacity:0.08;fill:none;fill-rule:evenodd;stroke:#000000;stroke-width:3;stroke-linecap:round;stroke-linejoin:miter;stroke-miterlimit:4;stroke-dasharray:none;stroke-opacity:1"
     d="m 1185.6868,574.47192 -8.2422,14.63187 -29.0853,-15.05538 8.2423,-14.63187 m 29.0852,15.05538 8.2423,14.63187 29.0852,-15.05538 -8.2422,-14.63187 m -29.0853,15.05538 0,36.43246 m -29.0852,-51.48784 29.0852,15.05538 29.0853,-15.05538 m -58.1705,18.89831 0,17.53415 29.0852,15.05538 29.0853,-15.05538 0,-17.53415 m 0,-18.89831 -29.0853,-15.05539 -29.0852,15.05539" />
  <path
     inkscape:connector-curvature="0"
     id="path4547-5-9"
     style="opacity:0.08;fill:none;fill-rule:evenodd;stroke:#000000;stroke-width:3;stroke-linecap:round;stroke-linejoin:miter;stroke-miterlimit:4;stroke-dasharray:none;stroke-opacity:1"
     d="m 1369.3013,349.99378 -8.2423,14.63187 -29.0852,-15.05538 8.2423,-14.63187 m 29.0852,15.05538 8.2423,14.63187 29.0852,-15.05538 -8.2423,-14.63187 m -29.0852,15.05538 0,36.43246 m -29.0852,-51.48784 29.0852,15.05538 29.0852,-15.05538 m -58.1704,18.89831 0,17.53415 29.0852,15.05538 29.0852,-15.05538 0,-17.53415 m 0,-18.89831 -29.0852,-15.05539 -29.0852,15.05539" />
  <path
     inkscape:connector-curvature="0"
     id="path4547-5-22"
     style="opacity:0.08;fill:none;fill-rule:evenodd;stroke:#000000;stroke-width:3;stroke-linecap:round;stroke-linejoin:miter;stroke-miterlimit:4;stroke-dasharray:none;stroke-opacity:1"
     d="m 1207.5904,154.69982 -8.2423,14.63187 -29.0852,-15.05538 8.2423,-14.63187 m 29.0852,15.05538 8.2423,14.63187 29.0852,-15.05538 -8.2423,-14.63187 m -29.0852,15.05538 0,36.43246 m -29.0852,-51.48784 29.0852,15.05538 29.0852,-15.05538 m -58.1704,18.89831 0,17.53415 29.0852,15.05538 29.0852,-15.05538 0,-17.53415 m 0,-18.89831 -29.0852,-15.05539 -29.0852,15.05539" />
  <path
     inkscape:connector-curvature="0"
     id="path4481-1-3-3"
     style="opacity:0.08;fill:none;fill-opacity:1;fill-rule:evenodd;stroke:#000000;stroke-width:3;stroke-linecap:round;stroke-linejoin:miter;stroke-miterlimit:4;stroke-dasharray:none;stroke-opacity:1"
     d="m 1025.625,84.882103 0,36.432457 m -29.0852,-51.487837 29.0852,15.05538 29.0853,-15.05538 m -43.6279,43.960147 14.5426,7.52769 29.0853,-15.05538 0,-36.432457 -29.0853,-15.05538 -29.0852,15.05538 0,18.21623 m -14.54262,22.583067 0,36.43246 m -29.08524,-51.487837 29.08524,15.055377 29.08522,-15.055377 m -58.17046,0 0,36.432457 29.08524,15.05538 29.08522,-15.05538 0,-36.432457 -29.08522,-15.05538 z" />
  <path
     inkscape:connector-curvature="0"
     id="path4547-5-2-6"
     style="opacity:0.07999998;fill:none;fill-rule:evenodd;stroke:#000000;stroke-width:3;stroke-linecap:round;stroke-linejoin:miter;stroke-miterlimit:4;stroke-dasharray:none;stroke-opacity:1"
     d="m 1203.6426,349.33161 8.2423,14.63187 29.0852,-15.05538 -8.2423,-14.63187 m -29.0852,15.05538 -8.2423,14.63187 -29.0852,-15.05538 8.2423,-14.63187 m 29.0852,15.05538 0,36.43246 m 29.0852,-51.48784 -29.0852,15.05538 -29.0852,-15.05538 m 58.1704,18.89831 0,17.53415 -29.0852,15.05538 -29.0852,-15.05538 0,-17.53415 m 0,-18.89831 29.0852,-15.05539 29.0852,15.05539 m -35.0798,61.18215 0,36.43246 m 29.0852,-51.48784 -29.0852,15.05538 -29.0852,-15.05538 m 51.8448,-3.31701 6.3256,3.31701 0,36.43246 -29.0852,15.05538 -29.0852,-15.05538 0,-36.43246 12.4305,-6.36287 m 53.2535,10.25213 0,36.43246 m 29.0853,-51.48784 -29.0853,15.05538 -7.5136,-3.88926 m 7.5136,-26.2215 29.0853,15.05538 0,36.43246 -29.0853,15.05538 -7.5136,-3.88926" />
  <path
     inkscape:connector-curvature="0"
     id="path4547-5-1"
     style="opacity:0.08;fill:none;fill-rule:evenodd;stroke:#000000;stroke-width:3;stroke-linecap:round;stroke-linejoin:miter;stroke-miterlimit:4;stroke-dasharray:none;stroke-opacity:1"
     d="m 251.88847,176.25497 -8.24226,14.63187 -29.08524,-15.05538 8.24226,-14.63187 m 29.08524,15.05538 8.24226,14.63187 29.08524,-15.05538 -8.24226,-14.63187 m -29.08524,15.05538 0,36.43245 m -29.08524,-51.48783 29.08524,15.05538 29.08524,-15.05538 m -58.17048,18.89831 0,17.53414 29.08524,15.05538 29.08524,-15.05538 0,-17.53414 m 0,-18.89831 -29.08524,-15.05539 -29.08524,15.05539" />
  <path
     id="path4481-5-7-2"
     style="opacity:0.08;fill:none;fill-opacity:1;fill-rule:evenodd;stroke:#000000;stroke-width:3;stroke-linecap:round;stroke-linejoin:miter;stroke-miterlimit:4;stroke-dasharray:none;stroke-opacity:1"
     d="m 644.4574,94.957538 0,36.432462 m -29.08519,-51.487842 29.08519,15.05538 29.0853,-15.05538 m -58.17049,0 0,36.432462 29.08519,15.05538 29.0853,-15.05538 0,-36.432462 -29.0853,-15.05538 z m -14.5426,-13.84939 0,36.432462 m -29.08528,-51.487842 29.08528,15.05538 29.08519,-15.05538 m -43.62786,44.06652 14.54267,7.421322 14.5426,-7.563362 m 14.54259,-22.5474 0,-21.37708 -29.08519,-15.05538 -29.08528,15.05538 0,21.37708 m -14.54262,22.58307 0,36.432462 m -29.08524,-51.487842 29.08524,15.05538 29.08523,-15.05538 m -58.17047,0 0,36.432462 29.08524,15.05538 29.08523,-15.05538 0,-36.432462 -29.08523,-15.05538 z"
     inkscape:connector-curvature="0" />
  <path
     id="path4547-5-2-9"
     style="opacity:0.08;fill:none;fill-rule:evenodd;stroke:#000000;stroke-width:3;stroke-linecap:round;stroke-linejoin:miter;stroke-miterlimit:4;stroke-dasharray:none;stroke-opacity:1"
     d="m 239.97589,427.37746 8.24226,14.63187 29.08524,-15.05538 -8.24226,-14.63187 m -29.08524,15.05538 -8.24226,14.63187 -29.08524,-15.05538 8.24226,-14.63187 m 29.08524,15.05538 0,36.43246 m 29.08524,-51.48784 -29.08524,15.05538 -29.08524,-15.05538 m 58.17048,18.89831 0,17.53415 -29.08524,15.05538 -29.08524,-15.05538 0,-17.53415 m 0,-18.89831 29.08524,-15.05539 29.08524,15.05539 m -35.07985,61.18215 0,36.43246 m 29.08524,-51.48784 -29.08524,15.05538 -29.08524,-15.05538 m 51.84489,-3.31701 6.32559,3.31701 0,36.43246 -29.08524,15.05538 -29.08524,-15.05538 0,-36.43246 12.43056,-6.36287"
     inkscape:connector-curvature="0"
     sodipodi:nodetypes="ccccccccccccccccccccccccccccccccc" />
  <path
     inkscape:connector-curvature="0"
     id="path4547-5-22-4"
     style="opacity:0.08;fill:none;fill-rule:evenodd;stroke:#000000;stroke-width:3;stroke-linecap:round;stroke-linejoin:miter;stroke-miterlimit:4;stroke-dasharray:none;stroke-opacity:1"
     d="m 1056.2293,145.58668 -8.2423,14.63187 -29.0852,-15.05538 8.2423,-14.63187 m 29.0852,15.05538 8.2423,14.63187 29.0852,-15.05538 -8.2423,-14.63187 m -29.0852,15.05538 0,36.43246 m -29.0852,-51.48784 29.0852,15.05538 29.0852,-15.05538 m -58.1704,18.89831 0,17.53415 29.0852,15.05538 29.0852,-15.05538 0,-17.53415 m 0,-18.89831 -29.0852,-15.05539 -29.0852,15.05539" />
  <path
     id="path4547-5-2-9-7"
     style="opacity:0.08;fill:none;fill-rule:evenodd;stroke:#000000;stroke-width:3;stroke-linecap:round;stroke-linejoin:miter;stroke-miterlimit:4;stroke-dasharray:none;stroke-opacity:1"
     d="m 1373.2584,62.663519 8.2423,14.63187 29.0852,-15.05538 -8.2422,-14.63187 m -29.0853,15.05538 -8.2422,14.63187 -29.0853,-15.05538 8.2423,-14.63187 m 29.0852,15.05538 0,36.43246 m 29.0853,-51.48784 -29.0853,15.05538 -29.0852,-15.05538 m 58.1705,18.89831 0,17.53415 -29.0853,15.05538 -29.0852,-15.05538 0,-17.53415 m 0,-18.89831 29.0852,-15.055389 29.0853,15.055389 m -35.0799,61.182151 0,36.43245 m 29.0853,-51.487831 -29.0853,15.055381 -29.0852,-15.055381 m 51.8449,-3.31701 6.3256,3.31701 0,36.432461 -29.0853,15.05537 -29.0852,-15.05537 0,-36.432461 12.4306,-6.36287"
     inkscape:connector-curvature="0"
     sodipodi:nodetypes="ccccccccccccccccccccccccccccccccc" />
  <path
     id="path4481-1-0-8"
     style="opacity:0.08;fill:none;fill-opacity:1;fill-rule:evenodd;stroke:#000000;stroke-width:3;stroke-linecap:round;stroke-linejoin:miter;stroke-miterlimit:4;stroke-dasharray:none;stroke-opacity:1"
     d="m 1132.3108,36.147031 0,36.43246 m -29.0853,-51.48784 29.0853,15.05538 29.0852,-15.05538 m -58.1705,0 0,36.43246 29.0853,15.05538 29.0852,-15.05538 0,-36.43246 -29.0852,-15.0553782 z"
     inkscape:connector-curvature="0" />
  <path
     id="path4481-1-0-4"
     style="opacity:0.08;fill:none;fill-opacity:1;fill-rule:evenodd;stroke:#000000;stroke-width:3;stroke-linecap:round;stroke-linejoin:miter;stroke-miterlimit:4;stroke-dasharray:none;stroke-opacity:1"
     d="m 956.79288,578.81135 0,36.43246 m -29.0853,-51.48784 29.0853,15.05538 29.0852,-15.05538 m -39.079,46.3993 9.9938,5.08854 29.0852,-15.05538 0,-36.43246 -29.0852,-15.05538 -29.0853,15.05538 0.03,5.97491 m -10.0237,24.92214 0,36.43246 m -29.0852,-51.48784 29.0852,15.05538 29.0852,-15.05538 m -58.1704,0 0,36.43246 29.0852,15.05538 29.0852,-15.05538 0,-36.43246 -29.0852,-15.05538 z"
     inkscape:connector-curvature="0" />
  <path
     inkscape:connector-curvature="0"
     id="path4481-1-0-4-5"
     style="opacity:0.08;fill:none;fill-opacity:1;fill-rule:evenodd;stroke:#000000;stroke-width:3;stroke-linecap:round;stroke-linejoin:miter;stroke-miterlimit:4;stroke-dasharray:none;stroke-opacity:1"
     d="m 1032.6353,455.68213 0,36.43246 m 29.0853,-51.48784 -29.0853,15.05538 -29.0852,-15.05538 m 39.079,46.3993 -9.9938,5.08854 -29.0852,-15.05538 0,-36.43246 29.0852,-15.05538 29.0853,15.05538 -0.03,5.97491 m 10.0237,24.92214 0,36.43246 m 29.0852,-51.48784 -29.0852,15.05538 -29.0852,-15.05538 m 58.1704,0 0,36.43246 -29.0852,15.05538 -29.0852,-15.05538 0,-36.43246 29.0852,-15.05538 z" />
  <path
     id="path4547-5-1-1"
     style="opacity:0.08;fill:none;fill-rule:evenodd;stroke:#000000;stroke-width:3;stroke-linecap:round;stroke-linejoin:miter;stroke-miterlimit:4;stroke-dasharray:none;stroke-opacity:1"
     d="m 164.8961,68.003504 -8.24226,14.631867 -29.08524,-15.055377 8.24226,-14.63187 m 29.08524,15.05538 8.24226,14.631867 29.08524,-15.055377 -8.24226,-14.63187 m -29.08524,15.05538 0,36.432456 m -29.08524,-51.487836 29.08524,15.05538 29.08524,-15.05538 m -58.17048,18.89831 0,17.534148 29.08524,15.055378 29.08524,-15.055378 0,-17.534148 m 0,-18.89831 -29.08524,-15.05539 -29.08524,15.05539 m 72.7131,-5.08231 -8.24226,14.63187 -2.17923,-2.233625 m -24.06543,-17.639701 5.40168,-9.81392 m 29.08524,15.055376 8.24226,14.63187 29.08524,-15.05538 -8.24226,-14.631866 m -29.08524,15.055376 0,36.43245 M 179.43872,32.810438 208.52396,47.865814 237.6092,32.810438 m -43.62786,44.048192 14.54262,7.439634 29.08524,-15.05538 0,-17.53414 m 0,-18.898306 -29.08524,-15.05539 -29.08524,15.05539"
     inkscape:connector-curvature="0" />
  <path
     inkscape:connector-curvature="0"
     id="path4547-5-1-1-0"
     style="opacity:0.08;fill:none;fill-rule:evenodd;stroke:#000000;stroke-width:3;stroke-linecap:round;stroke-linejoin:miter;stroke-miterlimit:4;stroke-dasharray:none;stroke-opacity:1"
     d="m 1399.4707,600.95103 -8.2423,14.63187 -29.0852,-15.05538 8.2423,-14.63187 m 29.0852,15.05538 8.2423,14.63187 29.0852,-15.05538 -8.2423,-14.63187 m -29.0852,15.05538 0,36.43246 m -29.0852,-51.48784 29.0852,15.05538 29.0852,-15.05538 m -58.1704,18.89831 0,17.53415 29.0852,15.05538 29.0852,-15.05538 0,-17.53415 m 0,-18.89831 -29.0852,-15.05539 -29.0852,15.05539 m 72.7131,-5.08231 -8.2423,14.63187 -2.1792,-2.23362 m -24.0655,-17.6397 5.4017,-9.81392 m 29.0853,15.05537 8.2422,14.63187 29.0853,-15.05538 -8.2423,-14.63186 m -29.0852,15.05537 0,36.43245 m -29.0853,-51.48782 29.0853,15.05537 29.0852,-15.05537 m -43.6279,44.04819 14.5427,7.43963 29.0852,-15.05538 0,-17.53414 m 0,-18.8983 -29.0852,-15.05539 -29.0853,15.05539" />
  <path
     id="path4481-1-23-0-6"
     style="opacity:0.08;fill:none;fill-opacity:1;fill-rule:evenodd;stroke:#000000;stroke-width:3;stroke-linecap:round;stroke-linejoin:miter;stroke-miterlimit:4;stroke-dasharray:none;stroke-opacity:1"
     d="m 1320.8754,483.40195 0,36.43246 m -29.0852,-51.48784 29.0852,15.05538 29.0853,-15.05538 m -58.1705,0 0,36.43246 29.0852,15.05538 29.0853,-15.05538 0,-36.43246 -29.0853,-15.05538 z"
     inkscape:connector-curvature="0" />
  <path
     id="path4481-1-23-0-3"
     style="opacity:0.08;fill:none;fill-opacity:1;fill-rule:evenodd;stroke:#000000;stroke-width:3;stroke-linecap:round;stroke-linejoin:miter;stroke-miterlimit:4;stroke-dasharray:none;stroke-opacity:1"
     d="m 400,180.27915 0,36.43246 M 370.91476,165.22377 400,180.27915 429.08524,165.22377 m -58.17048,0 0,36.43246 29.08524,15.05538 29.08524,-15.05538 0,-36.43246 L 400,150.16839 Z"
     inkscape:connector-curvature="0" />
  <path
     id="path4481-1-23-0-3-2"
     style="opacity:0.08;fill:none;fill-opacity:1;fill-rule:evenodd;stroke:#000000;stroke-width:3;stroke-linecap:round;stroke-linejoin:miter;stroke-miterlimit:4;stroke-dasharray:none;stroke-opacity:1"
     d="m -11.313709,391.47807 0,36.43246 m -29.085239,-51.48784 29.085239,15.05538 29.085241,-15.05538 m -58.17048,0 0,36.43246 29.085239,15.05538 29.085241,-15.05538 0,-36.43246 -29.085241,-15.05538 z"
     inkscape:connector-curvature="0" />
  <path
     id="path4547-5-2-9-7-0"
     style="opacity:0.08;fill:none;fill-rule:evenodd;stroke:#000000;stroke-width:3;stroke-linecap:round;stroke-linejoin:miter;stroke-miterlimit:4;stroke-dasharray:none;stroke-opacity:1"
     d="m 11.313705,137.89789 -8.2423002,14.63187 -29.0851998,-15.05538 8.2422,-14.63187 m 29.0853,15.05538 8.242199,14.63187 29.0853,-15.05538 -8.2423,-14.63187 m -29.085199,15.05538 0,36.43246 m -29.0853,-51.48784 29.0853,15.05538 29.085199,-15.05538 m -58.170499,18.89831 0,17.53415 29.0853,15.05538 29.085199,-15.05538 0,-17.53415 m 0,-18.89831 -29.085199,-15.05539 -29.0853,15.05539 m 35.0799,61.18215 0,36.43245 m -29.0853,-51.48783 29.0853,15.05538 29.085199,-15.05538 m -51.8448992,-3.31701 -6.3255998,3.31701 0,36.43246 29.0853,15.05537 29.085199,-15.05537 0,-36.43246 -12.4306,-6.36287"
     inkscape:connector-curvature="0"
     sodipodi:nodetypes="ccccccccccccccccccccccccccccccccc" />
  <path
     inkscape:connector-curvature="0"
     id="path4547-5-5-6"
     style="opacity:0.08;fill:none;fill-rule:evenodd;stroke:#000000;stroke-width:3;stroke-linecap:round;stroke-linejoin:miter;stroke-miterlimit:4;stroke-dasharray:none;stroke-opacity:1"
     d="m 787.71695,57.723678 -8.2422,14.63187 -29.0853,-15.05538 8.2423,-14.63187 m 29.0852,15.05538 8.2423,14.63187 29.0852,-15.05538 -8.2422,-14.63187 m -29.0853,15.05538 0,36.43246 m -29.0852,-51.48784 29.0852,15.05538 29.0853,-15.05538 m -58.1705,18.89831 0,17.53415 29.0852,15.05538 29.0853,-15.05538 0,-17.53415 m 0,-18.89831 -29.0853,-15.05539 -29.0852,15.05539" />
  <path
     id="path4547-5-2-1"
     style="opacity:0.08;fill:none;fill-rule:evenodd;stroke:#000000;stroke-width:3;stroke-linecap:round;stroke-linejoin:miter;stroke-miterlimit:4;stroke-dasharray:none;stroke-opacity:1"
     d="m 710.34324,205.78013 8.24226,14.63187 29.08524,-15.05538 -8.24226,-14.63187 m -29.08524,15.05538 -8.24226,14.63187 -29.08524,-15.05538 8.24226,-14.63187 m 29.08524,15.05538 0,36.43246 m 29.08524,-51.48784 -29.08524,15.05538 -29.08524,-15.05538 m 58.17048,18.89831 0,17.53415 -29.08524,15.05538 -29.08524,-15.05538 0,-17.53415 m 0,-18.89831 29.08524,-15.05539 29.08524,15.05539 m -35.07985,61.18215 0,36.43245 m 29.08524,-51.48783 -29.08524,15.05538 -29.08524,-15.05538 m 51.84489,-3.31701 6.32559,3.31701 0,36.43246 -29.08524,15.05537 -29.08524,-15.05537 0,-36.43246 12.43056,-6.36287 m 53.25352,10.25213 0,36.43245 m 29.08524,-51.48783 -29.08524,15.05538 -7.5136,-3.88926 m 7.5136,-26.2215 29.08524,15.05538 0,36.43246 -29.08524,15.05537 -7.5136,-3.88925"
     inkscape:connector-curvature="0" />
  <path
     id="path4547-5-1-1-5"
     style="opacity:0.08;fill:none;fill-rule:evenodd;stroke:#000000;stroke-width:3;stroke-linecap:round;stroke-linejoin:miter;stroke-miterlimit:4;stroke-dasharray:none;stroke-opacity:1"
     d="m 802.67258,366.19158 -8.24226,14.63187 -29.08524,-15.05538 8.24226,-14.63187 m 29.08524,15.05538 8.24226,14.63187 29.08524,-15.05538 -8.24226,-14.63187 m -29.08524,15.05538 0,36.43246 m -29.08524,-51.48784 29.08524,15.05538 29.08524,-15.05538 m -58.17048,18.89831 0,17.53415 29.08524,15.05538 29.08524,-15.05538 0,-17.53415 m 0,-18.89831 -29.08524,-15.05539 -29.08524,15.05539 m 72.7131,-5.08231 -8.24226,14.63187 -2.17923,-2.23362 m -24.06543,-17.6397 5.40168,-9.81392 m 29.08524,15.05537 8.24226,14.63187 29.08524,-15.05538 -8.24226,-14.63186 m -29.08524,15.05537 0,36.43245 m -29.08524,-51.48782 29.08524,15.05537 29.08524,-15.05537 m -43.62786,44.04819 14.54262,7.43963 29.08524,-15.05538 0,-17.53414 m 0,-18.8983 -29.08524,-15.05539 -29.08524,15.05539"
     inkscape:connector-curvature="0" />
  <path
     id="path4481-1-23-0-3-5"
     style="opacity:0.08;fill:none;fill-opacity:1;fill-rule:evenodd;stroke:#000000;stroke-width:3;stroke-linecap:round;stroke-linejoin:miter;stroke-miterlimit:4;stroke-dasharray:none;stroke-opacity:1"
     d="m 739.63369,498.9583 0,36.43246 m -29.08524,-51.48784 29.08524,15.05538 29.08524,-15.05538 m -58.17048,0 0,36.43246 29.08524,15.05538 29.08524,-15.05538 0,-36.43246 -29.08524,-15.05538 z"
     inkscape:connector-curvature="0" />
  <path
     inkscape:connector-curvature="0"
     id="path4481-1-3-4"
     style="opacity:0.08;fill:none;fill-opacity:1;fill-rule:evenodd;stroke:#000000;stroke-width:3;stroke-linecap:round;stroke-linejoin:miter;stroke-miterlimit:4;stroke-dasharray:none;stroke-opacity:1"
     d="m 589.12633,363.04976 0,36.43246 m 29.08524,-51.48784 -29.08524,15.05538 -29.08524,-15.05538 m 43.62786,43.96015 -14.54262,7.52769 -29.08524,-15.05538 0,-36.43246 29.08524,-15.05538 29.08524,15.05538 0,18.21623 m 14.54262,22.58307 0,36.43246 m 29.08524,-51.48784 -29.08524,15.05538 -29.08524,-15.05538 m 58.17048,0 0,36.43246 -29.08524,15.05538 -29.08524,-15.05538 0,-36.43246 29.08524,-15.05538 z" />
  <path
     id="path4547-5-1-1-7"
     style="opacity:0.08;fill:none;fill-rule:evenodd;stroke:#000000;stroke-width:3;stroke-linecap:round;stroke-linejoin:miter;stroke-miterlimit:4;stroke-dasharray:none;stroke-opacity:1"
     d="m 605.88413,579.73783 8.24226,14.63187 29.08524,-15.05538 -8.24226,-14.63187 m -29.08524,15.05538 -8.24226,14.63187 -29.08524,-15.05538 8.24226,-14.63187 m 29.08524,15.05538 0,36.43246 m 29.08524,-51.48784 -29.08524,15.05538 -29.08524,-15.05538 m 58.17048,18.89831 0,17.53415 -29.08524,15.05538 -29.08524,-15.05538 0,-17.53415 m 0,-18.89831 29.08524,-15.05539 29.08524,15.05539 m -72.7131,-5.08231 8.24226,14.63187 2.17923,-2.23362 m 24.06543,-17.6397 -5.40168,-9.81392 m -29.08524,15.05537 -8.24226,14.63187 -29.08524,-15.05538 8.24226,-14.63186 m 29.08524,15.05537 0,36.43245 m 29.08524,-51.48782 -29.08524,15.05537 -29.08524,-15.05537 m 43.62786,44.04819 -14.54262,7.43963 -29.08524,-15.05538 0,-17.53414 m 0,-18.8983 29.08524,-15.05539 29.08524,15.05539"
     inkscape:connector-curvature="0" />
  <path
     id="path4481-1-23-0-3-6"
     style="opacity:0.08;fill:none;fill-opacity:1;fill-rule:evenodd;stroke:#000000;stroke-width:3;stroke-linecap:round;stroke-linejoin:miter;stroke-miterlimit:4;stroke-dasharray:none;stroke-opacity:1"
     d="m 882.46926,196.3166 0,36.43246 m -29.08524,-51.48784 29.08524,15.05538 29.08524,-15.05538 m -58.17048,0 0,36.43246 29.08524,15.05538 29.08524,-15.05538 0,-36.43246 -29.08524,-15.05538 z"
     inkscape:connector-curvature="0" />
  <path
     id="path4481-1-23-0-36"
     style="opacity:0.07999998;fill:none;fill-opacity:1;fill-rule:evenodd;stroke:#000000;stroke-width:3;stroke-linecap:round;stroke-linejoin:miter;stroke-miterlimit:4;stroke-dasharray:none;stroke-opacity:1"
     d="m 346.48232,558.35528 0,36.43246 m -29.08524,-51.48784 29.08524,15.05538 29.08524,-15.05538 m -58.17048,0 0,36.43246 29.08524,15.05538 29.08524,-15.05538 0,-36.43246 -29.08524,-15.05538 z"
     inkscape:connector-curvature="0" />
  <path
     inkscape:connector-curvature="0"
     id="path4547-5-7-7"
     style="opacity:0.07999998;fill:none;fill-rule:evenodd;stroke:#000000;stroke-width:3;stroke-linecap:round;stroke-linejoin:miter;stroke-miterlimit:4;stroke-dasharray:none;stroke-opacity:1"
     d="m 446.89149,435.31869 -8.24226,14.63187 -29.08524,-15.05538 8.24226,-14.63187 m 29.08524,15.05538 8.24226,14.63187 29.08524,-15.05538 -8.24226,-14.63187 m -29.08524,15.05538 0,36.43246 m -29.08524,-51.48784 29.08524,15.05538 29.08524,-15.05538 m -58.17048,18.89831 0,17.53415 29.08524,15.05538 29.08524,-15.05538 0,-17.53415 m 0,-18.89831 -29.08524,-15.05539 -29.08524,15.05539" />
  <path
     inkscape:connector-curvature="0"
     id="path4547-5-53"
     style="opacity:0.07999998;fill:none;fill-rule:evenodd;stroke:#000000;stroke-width:3;stroke-linecap:round;stroke-linejoin:miter;stroke-miterlimit:4;stroke-dasharray:none;stroke-opacity:1"
     d="m 394.56558,49.238392 -8.24226,14.63187 -29.08524,-15.05538 8.24226,-14.63187 m 29.08524,15.05538 8.24226,14.63187 29.08524,-15.05538 -8.24226,-14.63187 m -29.08524,15.05538 0,36.43246 m -29.08524,-51.48784 29.08524,15.05538 29.08524,-15.05538 m -58.17048,18.89831 0,17.53415 29.08524,15.05538 29.08524,-15.05538 0,-17.53415 m 0,-18.89831 -29.08524,-15.055389 -29.08524,15.055389" />
</svg>
